PathFileType	4	(X/Y/Z)	C:\Users\dbl\Desktop\20210112(1)\20210112\bx_y_0_901.trc
DataRate	CameraRate	NumFrames	NumMarkers	Units	OrigDataRate	OrigDataStartFrame	OrigNumFrames
50.00	50.00	       4	43	mm	50.00	172	       457
Frame#	Time	Top.Head			R.Acromium			L.Acromium			Sternum			R.ASIS			L.ASIS			V.Sacral			R.Thigh.Upper			R.Thigh.Front			R.Thigh.Rear			R.Knee.Lat			R.Knee.Med			R.Shank.Upper			R.Shank.Front			R.Shank.Rear			R.Ankle.Lat			R.Midfoot.Lat			R.Toe.Lat			R.Toe.Tip			R.Toe.Med			R.Ankle.Med			R.Midfoot.Sup			R.Heel			L.Thigh.Upper			L.Thigh.Front			L.Thigh.Rear			L.Knee.Lat			L.Knee.Med			L.Shank.Upper			L.Shank.Front			L.Shank.Rear			L.Ankle.Lat			L.Midfoot.Lat			L.Toe.Lat			L.Toe.Tip			L.Toe.Med			L.Ankle.Med			L.Midfoot.Sup			L.Heel			origin1 front left			origin2 front right			origin 3 back right			origin 4 back leftt			
		X1	Y1	Z1	X2	Y2	Z2	X3	Y3	Z3	X4	Y4	Z4	X5	Y5	Z5	X6	Y6	Z6	X7	Y7	Z7	X8	Y8	Z8	X9	Y9	Z9	X10	Y10	Z10	X11	Y11	Z11	X12	Y12	Z12	X13	Y13	Z13	X14	Y14	Z14	X15	Y15	Z15	X16	Y16	Z16	X17	Y17	Z17	X18	Y18	Z18	X19	Y19	Z19	X20	Y20	Z20	X21	Y21	Z21	X22	Y22	Z22	X23	Y23	Z23	X24	Y24	Z24	X25	Y25	Z25	X26	Y26	Z26	X27	Y27	Z27	X28	Y28	Z28	X29	Y29	Z29	X30	Y30	Z30	X31	Y31	Z31	X32	Y32	Z32	X33	Y33	Z33	X34	Y34	Z34	X35	Y35	Z35	X36	Y36	Z36	X37	Y37	Z37	X38	Y38	Z38	X39	Y39	Z39	X40	Y40	Z40	X41	Y41	Z41	X42	Y42	Z42	X43	Y43	Z43	

172	3.420	-95.57013	90.08296	1178.67871	-375.16660	-87.61205	1069.40076	-368.44781	267.23633	1117.79272	-410.27338	63.89138	1176.21130	-771.01208	-23.79379	976.37445	-758.10388	204.99187	993.31879	-920.62262	76.00925	1102.69910	-840.58289	-88.17564	842.29492	-758.85791	-21.05458	792.85345	-852.41956	-69.41109	698.15564	-825.13483	-41.35659	601.79565	-798.75018	68.21169	563.95483	-822.71667	-36.43718	555.47101	-761.93091	9.18195	522.69690	-845.81042	-46.89222	468.70847	-773.06714	-11.81421	200.90483	-664.41376	-69.63527	159.84335	-622.40295	-80.42684	156.34291	-561.48944	-35.79754	162.92372	-605.34296	20.03862	167.13885	-728.98145	70.93826	220.87708	-677.82220	52.95544	162.56523	-798.12506	50.42702	172.98894	-834.57092	272.97198	861.30701	-763.70667	207.85263	797.36945	-859.96423	273.88724	726.43848	-852.13806	243.11139	618.18140	-793.64435	138.93213	563.21991	-836.35486	239.03719	562.04163	-769.55548	201.82477	533.12689	-855.36237	251.50317	483.34796	-777.11346	225.24220	200.41054	-667.81018	300.45911	158.46579	-630.03619	308.00351	162.19980	-562.65302	259.01379	166.37421	-597.11304	223.63684	173.45068	-720.76819	156.43974	220.20523	-677.22760	175.89186	161.22209	-799.17285	174.70155	181.18834	-528.14020	304.00070	146.17929	-518.00885	-72.54840	142.78194	-875.97241	-78.66190	141.37430	-882.60016	296.12302	144.58121	
173	3.440	-94.81494	90.28366	1170.41479	-374.81686	-87.51727	1063.03662	-367.83505	267.36966	1111.47498	-409.00275	63.64058	1173.98706	-772.14655	-23.90673	975.11169	-758.64044	204.83597	992.50104	-920.31775	75.83218	1103.10181	-841.41467	-88.17124	842.08734	-759.77509	-20.69424	792.33466	-853.00006	-69.52589	698.15063	-825.67371	-41.27280	601.69482	-799.29614	68.23757	563.73102	-823.13293	-36.43143	555.42169	-762.26520	9.25451	522.80170	-846.22510	-46.77808	468.54062	-773.00262	-11.84174	200.95749	-664.41107	-69.63313	159.84872	-622.42493	-80.40826	156.32245	-561.50287	-35.79381	162.93201	-605.32465	20.04432	167.10936	-728.98035	70.93107	220.89047	-677.86298	52.97804	162.52475	-798.12653	50.45372	172.92282	-835.41614	273.06195	861.03918	-764.57953	207.75679	796.90149	-860.70459	273.91571	726.16998	-852.68390	243.22415	617.89368	-794.14166	138.82657	563.22955	-836.84485	239.06656	561.97375	-769.89392	201.75165	533.15894	-855.70746	251.45683	483.23624	-777.11584	225.20676	200.38168	-667.81024	300.38727	158.52872	-630.03687	307.99466	162.21878	-562.61652	258.89783	166.38470	-597.10175	223.54823	173.37544	-720.90448	156.37567	220.29909	-677.30078	175.84326	161.19293	-799.19983	174.71918	181.10855	-528.13281	304.01340	146.17918	-518.02014	-72.52825	142.73666	-875.96588	-78.68610	141.36163	-882.60248	296.13840	144.58049	
174	3.460	-94.10016	90.51845	1162.27576	-374.53879	-87.28114	1056.78406	-367.35040	267.49466	1105.25769	-407.76331	63.40417	1171.81250	-773.25562	-23.99114	973.85144	-759.14703	204.66576	991.70660	-919.94849	75.70927	1103.52393	-842.20996	-88.20638	841.91797	-760.63428	-20.29934	791.92896	-853.62866	-69.51691	698.07379	-826.18982	-41.22710	601.65771	-799.95923	68.07118	563.38324	-823.56299	-36.37936	555.33875	-762.57788	9.32574	522.85602	-846.60162	-46.58431	468.36719	-772.99384	-11.85610	200.99742	-664.41260	-69.62687	159.83664	-622.43427	-80.39610	156.29561	-561.50592	-35.78549	162.92288	-605.30255	20.03781	167.09833	-728.96979	70.92068	220.91228	-677.88342	53.06351	162.49168	-798.11627	50.47386	172.85164	-836.18359	273.16782	860.79779	-765.38074	207.70715	796.50848	-861.39587	274.00131	725.93158	-853.10791	243.39641	617.68256	-794.58936	138.74516	563.24255	-837.14465	239.07170	561.84473	-770.17914	201.63922	533.20221	-855.95551	251.39032	483.09766	-777.09814	225.15370	200.35016	-667.79346	300.32153	158.60086	-630.02039	307.96921	162.24435	-562.56885	258.78079	166.39584	-597.07886	223.45068	173.32133	-720.99939	156.27522	220.38867	-677.31879	175.79550	161.19258	-799.23773	174.75145	181.04623	-528.11249	304.01752	146.19385	-518.00232	-72.53011	142.70766	-875.96161	-78.71265	141.33669	-882.61823	296.14355	144.56427	
175	3.480	-93.44324	90.80040	1154.25488	-374.30228	-86.95564	1050.64099	-366.83795	267.70621	1099.30298	-406.55536	63.18201	1169.68811	-774.33893	-24.04780	972.59509	-759.62378	204.48178	990.93549	-919.50427	75.65124	1103.83447	-842.98242	-88.25831	841.78461	-761.42053	-20.04485	791.80634	-854.27429	-69.40891	697.87335	-826.67303	-41.15797	601.59424	-800.55426	67.89457	563.07574	-823.97943	-36.23823	555.19751	-762.86060	9.39011	522.82794	-846.89630	-46.36834	468.24271	-773.02679	-11.83262	201.01454	-664.41687	-69.61422	159.81438	-622.43005	-80.41597	156.27921	-561.48615	-35.76240	162.91534	-605.26794	20.04461	167.10658	-728.95612	70.91914	220.92448	-677.85400	53.18989	162.50385	-798.07416	50.50698	172.78653	-836.89435	273.24396	860.56165	-766.08496	207.73181	796.26453	-862.05750	274.16293	725.78906	-853.40753	243.56546	617.52948	-794.95471	138.68796	563.19934	-837.27551	239.04779	561.66644	-770.39862	201.52658	533.24280	-856.11584	251.31345	482.95416	-777.07153	225.10403	200.32716	-667.74207	300.27106	158.67413	-629.99249	307.91843	162.28523	-562.51697	258.68921	166.42683	-597.02930	223.32823	173.28558	-721.02069	156.15637	220.44995	-677.30139	175.75238	161.21744	-799.29163	174.79523	181.02769	-528.07977	304.01550	146.22226	-517.97272	-72.54977	142.71921	-875.94818	-78.73046	141.30298	-882.62695	296.14008	144.55418	
